<svg xmlns="http://www.w3.org/2000/svg" width="1em" height="1em" viewBox="0 0 72 72"><path fill="#a57939" d="M58.888 25.381a1.466 1.466 0 0 0-.08-.153A11.69 11.69 0 0 0 53.85 20.7c-.827-.404-1.7-.706-2.6-.9a15.848 15.848 0 0 1-6.2-2.8a3.157 3.157 0 0 1-1.3-2.2c-.2-1.8 1.4-2.5 4.1-2.1a7.004 7.004 0 0 1 4.7 3.2a4.954 4.954 0 0 0 1.9 1.9c1.307.594 1.908-.258 2.18-1.049a1.404 1.404 0 0 0-.486-1.58l-.822-.617a1.408 1.408 0 0 1-.137-.117l-2.97-2.89a4.193 4.193 0 0 0-1.54-.953l-1.513-.53a5.28 5.28 0 0 0-3.25-.077l-1.198.356c-.57.17-1.099.455-1.554.837l-.867.731c-.223.188-.382.44-.455.723l-.238.92a3.92 3.92 0 0 0 .581 3.224l.669.958a8.03 8.03 0 0 0 3.384 2.77L48.75 21.6l3.395 1.29a8.397 8.397 0 0 1 2.842 1.8l.556.537a4.677 4.677 0 0 1 1.253 2.083a2.81 2.81 0 0 1-.715 2.759c-.34.34-.801.53-1.282.53h-1.681c-.177 0-.352-.032-.517-.098l-3.448-1.365a14.051 14.051 0 0 0-2.264-.682l-1.312-.277a8.34 8.34 0 0 0-5.253.602l-.273.127a1.13 1.13 0 0 1-.422.105a1.417 1.417 0 0 1-1.466-1.665l.095-.528a1.13 1.13 0 0 0-.245-.922l-.324-.39a1.13 1.13 0 0 0-.868-.406h-1.57c-.26 0-.51.09-.712.253a1.796 1.796 0 0 1-2.434-.155l-.624-.656c-.152-.16-.34-.28-.547-.354a5.464 5.464 0 0 0-5.135.8l-.793.604a5.928 5.928 0 0 0-2.034 2.843l-.191.572a8.631 8.631 0 0 0-.367 3.87l.115.863c.014.106.04.21.078.31l1.292 3.415c.034.09.077.175.129.256l1.09 1.715c.587.922.706 2.065.323 3.088a4.569 4.569 0 0 1-.835 1.4l-1.631 1.868a20.571 20.571 0 0 1-6.184 4.815l-1.453.739c-.858.435-1.738.827-2.636 1.172l-2.206.849a6.98 6.98 0 0 0-2.794 1.972a1.13 1.13 0 0 0 1.063 1.847l5.833-1.077a1.44 1.44 0 0 0 .104-.023L21.45 54.3l2.797-.632a9.242 9.242 0 0 0 5.45-3.594l.988-1.365a21.208 21.208 0 0 0 2.011-3.407a1.403 1.403 0 0 1 2.141-.502l1.378 1.093c.09.07.17.153.24.243l1.016 1.32c.549.714.701 1.656.406 2.506l-1.182 3.409a1.4 1.4 0 0 1-.114.247L35.56 55.37a1.403 1.403 0 0 1-.907.663l-2.76.613a5.808 5.808 0 0 0-2.097.93l-.347.246a1.403 1.403 0 0 0-.367 1.907l.125.193c.157.243.4.416.68.484l.754.184a14.61 14.61 0 0 0 5.864.217l.395-.065c.166-.028.335-.026.5.007l3.11.61a7.148 7.148 0 0 0 3.44-.172l.796-.24a5.354 5.354 0 0 0 3.604-3.665l.612-2.157c.325-1.146.512-2.327.557-3.517l.06-1.603a3.555 3.555 0 0 1 1.699-2.9l1.457-.89a11.162 11.162 0 0 0 3.723-3.736l1.073-1.768a12.227 12.227 0 0 0 1.607-4.331l.04-.246a1.414 1.414 0 0 0-.109-.835a14.99 14.99 0 0 0-1.014-1.813c-.344-.525-.307-1.235.133-1.683c2.37-2.42.96-5.853.701-6.422ZM41.423 55.997l.92-2.146c.47-1.097 2.082-.903 2.278.275l.116.697a1.403 1.403 0 0 1-1.043 1.591l-1.58.395a.595.595 0 0 1-.691-.813"/><path fill="#6a462f" d="M55.51 46.316c-.04.248.011.502.141.716l.592.979a7.748 7.748 0 0 0 4.28 3.371l2.625.835c.737.235 1.28.864 1.404 1.628l.074.457c.216 1.33.324 2.675.324 4.022v1.938a2.053 2.053 0 0 1-3 1.822a3.588 3.588 0 0 1-1.911-2.788l-.016-.144c-.113-1.014-.723-1.935-1.657-2.345l-.016-.007c-.2 0-7.1-3.7-7.1-3.7a7.205 7.205 0 0 1-1.06-1.94c-.65-1.806.107-3.82 1.765-4.788l1.958-1.142a1.07 1.07 0 0 1 1.596 1.086"/><path fill="#f4aa41" d="m26.352 31.328l2.662.248a2.21 2.21 0 0 1 1.842 1.366l.208.511a2.21 2.21 0 0 1-.086 1.854l-.674 1.297a2.21 2.21 0 0 0-.214.624l-.017.095a2.21 2.21 0 0 1-2.129 1.814l-1.386.03a2.21 2.21 0 0 1-2.134-1.487l-.341-.985a2.204 2.204 0 0 0-.075-.187l-.854-1.892a2.21 2.21 0 0 1 1.619-3.084l.979-.178c.198-.036.4-.045.6-.026"/><g fill="none" stroke="#000" stroke-linecap="round" stroke-linejoin="round" stroke-width="2"><path d="M55.85 16c-6.2-10.1-13.9-5.7-14.6-2.5c-.6 2.8.5 6.2 9.3 8.6a9.79 9.79 0 0 1 6.3 4.6a2.828 2.828 0 0 1-1.1 3.9a2.648 2.648 0 0 1-2.3.2c-4.7-1.6-9.4-5-15-.9"/><path d="M35.25 35.7c5 .3 2.8-9.7 2.8-9.7c-.5-.8-2.3-1.8-4.6 1.2a4.478 4.478 0 0 0-1.2-2a4.717 4.717 0 0 0-6.2-.2a7.38 7.38 0 0 0-3.1 7.6"/><path d="M24.05 36.6s-3-3.8.8-4.6s5.3 0 5.3 0s3 .8 0 4.6c0 0 1.1 3.4-2.7 3.4a3.05 3.05 0 0 1-3.395-2.66l-.005-.04c-.088-.211-.04-.469 0-.7m7.1 10.2l-3.3 6s-7.9 1.8-10.3 2.4c-1.8.5-5.4 1.6-7 2.2a2.833 2.833 0 0 1-2.2-.2c-1.1-.6-1.9-2.8 5.8-5.2c6.9-2.2 11.8-7.6 12.1-12m12.9-2.1s7.9 7.9 5.4 11.5c-1.8 2.7-4.5 7.6-5.9 10.1a2.824 2.824 0 0 1-2.5 1.5h-5.1c-2.6 0-2.9-4-.3-4.2h.5c1.1 0 4.1-.6 4.6-1.6l3.1-6.9s-2.9-4.3-6.1-4.9m25.7-7.3s3 6.7-9.1 12.1c.018 3.706-.419 7.4-1.3 11a1.893 1.893 0 0 1-2.2 1.4h-3.3"/><path d="M52.25 53c1 3 6 4.2 8 4v2.8a2.348 2.348 0 0 0 2.396 2.3h.104a2.14 2.14 0 0 0 2.1-1.7a26.21 26.21 0 0 0-.7-7.4c-9.7-1.8-9.3-7.2-9.3-7.2m-12.9 11.3a4.72 4.72 0 0 0 3-1l-1-5"/></g></svg>